<svg width="161" height="30" viewBox="0 0 161 30" fill="none" xmlns="http://www.w3.org/2000/svg">
<path d="M13.12 29L7.864 19.46H6.388V29H0.232V3.728H10.564C12.556 3.728 14.248 4.076 15.64 4.772C17.056 5.468 18.112 6.428 18.808 7.652C19.504 8.852 19.852 10.196 19.852 11.684C19.852 13.364 19.372 14.864 18.412 16.184C17.476 17.504 16.084 18.44 14.236 18.992L20.068 29H13.12ZM6.388 15.104H10.204C11.332 15.104 12.172 14.828 12.724 14.276C13.3 13.724 13.588 12.944 13.588 11.936C13.588 10.976 13.3 10.22 12.724 9.668C12.172 9.116 11.332 8.84 10.204 8.84H6.388V15.104ZM22.4924 18.92C22.4924 16.856 22.8764 15.044 23.6444 13.484C24.4364 11.924 25.5044 10.724 26.8484 9.884C28.1924 9.044 29.6924 8.624 31.3484 8.624C32.7644 8.624 34.0004 8.912 35.0564 9.488C36.1364 10.064 36.9644 10.82 37.5404 11.756V8.912H43.6964V29H37.5404V26.156C36.9404 27.092 36.1004 27.848 35.0204 28.424C33.9644 29 32.7284 29.288 31.3124 29.288C29.6804 29.288 28.1924 28.868 26.8484 28.028C25.5044 27.164 24.4364 25.952 23.6444 24.392C22.8764 22.808 22.4924 20.984 22.4924 18.92ZM37.5404 18.956C37.5404 17.42 37.1084 16.208 36.2444 15.32C35.4044 14.432 34.3724 13.988 33.1484 13.988C31.9244 13.988 30.8804 14.432 30.0164 15.32C29.1764 16.184 28.7564 17.384 28.7564 18.92C28.7564 20.456 29.1764 21.68 30.0164 22.592C30.8804 23.48 31.9244 23.924 33.1484 23.924C34.3724 23.924 35.4044 23.48 36.2444 22.592C37.1084 21.704 37.5404 20.492 37.5404 18.956ZM56.322 29.288C54.57 29.288 53.01 28.988 51.642 28.388C50.274 27.788 49.194 26.972 48.402 25.94C47.61 24.884 47.166 23.708 47.07 22.412H53.154C53.226 23.108 53.55 23.672 54.126 24.104C54.702 24.536 55.41 24.752 56.25 24.752C57.018 24.752 57.606 24.608 58.014 24.32C58.446 24.008 58.662 23.612 58.662 23.132C58.662 22.556 58.362 22.136 57.762 21.872C57.162 21.584 56.19 21.272 54.846 20.936C53.406 20.6 52.206 20.252 51.246 19.892C50.286 19.508 49.458 18.92 48.762 18.128C48.066 17.312 47.718 16.22 47.718 14.852C47.718 13.7 48.03 12.656 48.654 11.72C49.302 10.76 50.238 10.004 51.462 9.452C52.71 8.9 54.186 8.624 55.89 8.624C58.41 8.624 60.39 9.248 61.83 10.496C63.294 11.744 64.134 13.4 64.35 15.464H58.662C58.566 14.768 58.254 14.216 57.726 13.808C57.222 13.4 56.55 13.196 55.71 13.196C54.99 13.196 54.438 13.34 54.054 13.628C53.67 13.892 53.478 14.264 53.478 14.744C53.478 15.32 53.778 15.752 54.378 16.04C55.002 16.328 55.962 16.616 57.258 16.904C58.746 17.288 59.958 17.672 60.894 18.056C61.83 18.416 62.646 19.016 63.342 19.856C64.062 20.672 64.434 21.776 64.458 23.168C64.458 24.344 64.122 25.4 63.45 26.336C62.802 27.248 61.854 27.968 60.606 28.496C59.382 29.024 57.954 29.288 56.322 29.288ZM79.4202 23.78V29H76.2882C74.0562 29 72.3162 28.46 71.0682 27.38C69.8202 26.276 69.1962 24.488 69.1962 22.016V14.024H66.7482V8.912H69.1962V4.016H75.3522V8.912H79.3842V14.024H75.3522V22.088C75.3522 22.688 75.4962 23.12 75.7842 23.384C76.0722 23.648 76.5522 23.78 77.2242 23.78H79.4202ZM89.0052 12.26C89.7252 11.156 90.6252 10.292 91.7052 9.668C92.7852 9.02 93.9852 8.696 95.3052 8.696V15.212H93.6132C92.0772 15.212 90.9252 15.548 90.1572 16.22C89.3892 16.868 89.0052 18.02 89.0052 19.676V29H82.8492V8.912H89.0052V12.26ZM117.184 18.632C117.184 19.208 117.148 19.808 117.076 20.432H103.144C103.24 21.68 103.636 22.64 104.332 23.312C105.052 23.96 105.928 24.284 106.96 24.284C108.496 24.284 109.564 23.636 110.164 22.34H116.716C116.38 23.66 115.768 24.848 114.88 25.904C114.016 26.96 112.924 27.788 111.604 28.388C110.284 28.988 108.808 29.288 107.176 29.288C105.208 29.288 103.456 28.868 101.92 28.028C100.384 27.188 99.1836 25.988 98.3196 24.428C97.4556 22.868 97.0236 21.044 97.0236 18.956C97.0236 16.868 97.4436 15.044 98.2836 13.484C99.1476 11.924 100.348 10.724 101.884 9.884C103.42 9.044 105.184 8.624 107.176 8.624C109.12 8.624 110.848 9.032 112.36 9.848C113.872 10.664 115.048 11.828 115.888 13.34C116.752 14.852 117.184 16.616 117.184 18.632ZM110.884 17.012C110.884 15.956 110.524 15.116 109.804 14.492C109.084 13.868 108.184 13.556 107.104 13.556C106.072 13.556 105.196 13.856 104.476 14.456C103.78 15.056 103.348 15.908 103.18 17.012H110.884Z" fill="#333333"/>
<path d="M123.311 29.288C122.231 29.288 121.343 28.976 120.647 28.352C119.975 27.704 119.639 26.912 119.639 25.976C119.639 25.016 119.975 24.212 120.647 23.564C121.343 22.916 122.231 22.592 123.311 22.592C124.367 22.592 125.231 22.916 125.903 23.564C126.599 24.212 126.947 25.016 126.947 25.976C126.947 26.912 126.599 27.704 125.903 28.352C125.231 28.976 124.367 29.288 123.311 29.288ZM133.687 6.824C132.607 6.824 131.719 6.512 131.023 5.888C130.351 5.24 130.015 4.448 130.015 3.512C130.015 2.552 130.351 1.76 131.023 1.136C131.719 0.487998 132.607 0.163998 133.687 0.163998C134.743 0.163998 135.607 0.487998 136.279 1.136C136.975 1.76 137.323 2.552 137.323 3.512C137.323 4.448 136.975 5.24 136.279 5.888C135.607 6.512 134.743 6.824 133.687 6.824ZM136.747 8.912V29H130.591V8.912H136.747ZM150.353 29.288C148.385 29.288 146.609 28.868 145.025 28.028C143.465 27.188 142.229 25.988 141.317 24.428C140.429 22.868 139.985 21.044 139.985 18.956C139.985 16.892 140.441 15.08 141.353 13.52C142.265 11.936 143.513 10.724 145.097 9.884C146.681 9.044 148.457 8.624 150.425 8.624C152.393 8.624 154.169 9.044 155.753 9.884C157.337 10.724 158.585 11.936 159.497 13.52C160.409 15.08 160.865 16.892 160.865 18.956C160.865 21.02 160.397 22.844 159.461 24.428C158.549 25.988 157.289 27.188 155.681 28.028C154.097 28.868 152.321 29.288 150.353 29.288ZM150.353 23.96C151.529 23.96 152.525 23.528 153.341 22.664C154.181 21.8 154.601 20.564 154.601 18.956C154.601 17.348 154.193 16.112 153.377 15.248C152.585 14.384 151.601 13.952 150.425 13.952C149.225 13.952 148.229 14.384 147.437 15.248C146.645 16.088 146.249 17.324 146.249 18.956C146.249 20.564 146.633 21.8 147.401 22.664C148.193 23.528 149.177 23.96 150.353 23.96Z" fill="#FF124B"/>
</svg>
