<svg xmlns="http://www.w3.org/2000/svg" width="179" height="34" fill="none" viewBox="0 0 179 34"><path fill="#333" d="M14.8 33L8.96 22.4H7.32V33H0.48V4.92H11.96C14.1733 4.92 16.0533 5.30667 17.6 6.08C19.1733 6.85333 20.3467 7.92 21.12 9.28C21.8933 10.6133 22.28 12.1067 22.28 13.76C22.28 15.6267 21.7467 17.2933 20.68 18.76C19.64 20.2267 18.0933 21.2667 16.04 21.88L22.52 33H14.8ZM7.32 17.56H11.56C12.8133 17.56 13.7467 17.2533 14.36 16.64C15 16.0267 15.32 15.16 15.32 14.04C15.32 12.9733 15 12.1333 14.36 11.52C13.7467 10.9067 12.8133 10.6 11.56 10.6H7.32V17.56ZM25.2138 21.8C25.2138 19.5067 25.6404 17.4933 26.4938 15.76C27.3738 14.0267 28.5604 12.6933 30.0538 11.76C31.5471 10.8267 33.2138 10.36 35.0538 10.36C36.6271 10.36 38.0004 10.68 39.1738 11.32C40.3738 11.96 41.2938 12.8 41.9338 13.84V10.68H48.7738V33H41.9338V29.84C41.2671 30.88 40.3338 31.72 39.1338 32.36C37.9604 33 36.5871 33.32 35.0138 33.32C33.2004 33.32 31.5471 32.8533 30.0538 31.92C28.5604 30.96 27.3738 29.6133 26.4938 27.88C25.6404 26.12 25.2138 24.0933 25.2138 21.8ZM41.9338 21.84C41.9338 20.1333 41.4538 18.7867 40.4938 17.8C39.5604 16.8133 38.4138 16.32 37.0538 16.32C35.6938 16.32 34.5338 16.8133 33.5738 17.8C32.6404 18.76 32.1738 20.0933 32.1738 21.8C32.1738 23.5067 32.6404 24.8667 33.5738 25.88C34.5338 26.8667 35.6938 27.36 37.0538 27.36C38.4138 27.36 39.5604 26.8667 40.4938 25.88C41.4538 24.8933 41.9338 23.5467 41.9338 21.84ZM62.8022 33.32C60.8555 33.32 59.1222 32.9867 57.6022 32.32C56.0822 31.6533 54.8822 30.7467 54.0022 29.6C53.1222 28.4267 52.6289 27.12 52.5222 25.68H59.2822C59.3622 26.4533 59.7222 27.08 60.3622 27.56C61.0022 28.04 61.7889 28.28 62.7222 28.28C63.5755 28.28 64.2289 28.12 64.6822 27.8C65.1622 27.4533 65.4022 27.0133 65.4022 26.48C65.4022 25.84 65.0689 25.3733 64.4022 25.08C63.7355 24.76 62.6555 24.4133 61.1622 24.04C59.5622 23.6667 58.2289 23.28 57.1622 22.88C56.0955 22.4533 55.1755 21.8 54.4022 20.92C53.6289 20.0133 53.2422 18.8 53.2422 17.28C53.2422 16 53.5889 14.84 54.2822 13.8C55.0022 12.7333 56.0422 11.8933 57.4022 11.28C58.7889 10.6667 60.4289 10.36 62.3222 10.36C65.1222 10.36 67.3222 11.0533 68.9222 12.44C70.5489 13.8267 71.4822 15.6667 71.7222 17.96H65.4022C65.2955 17.1867 64.9489 16.5733 64.3622 16.12C63.8022 15.6667 63.0555 15.44 62.1222 15.44C61.3222 15.44 60.7089 15.6 60.2822 15.92C59.8555 16.2133 59.6422 16.6267 59.6422 17.16C59.6422 17.8 59.9755 18.28 60.6422 18.6C61.3355 18.92 62.4022 19.24 63.8422 19.56C65.4955 19.9867 66.8422 20.4133 67.8822 20.84C68.9222 21.24 69.8289 21.9067 70.6022 22.84C71.4022 23.7467 71.8155 24.9733 71.8422 26.52C71.8422 27.8267 71.4689 29 70.7222 30.04C70.0022 31.0533 68.9489 31.8533 67.5622 32.44C66.2022 33.0267 64.6155 33.32 62.8022 33.32ZM88.4669 27.2V33H84.9869C82.5069 33 80.5735 32.4 79.1869 31.2C77.8002 29.9733 77.1069 27.9867 77.1069 25.24V16.36H74.3869V10.68H77.1069V5.24H83.9469V10.68H88.4269V16.36H83.9469V25.32C83.9469 25.9867 84.1069 26.4667 84.4269 26.76C84.7469 27.0533 85.2802 27.2 86.0269 27.2H88.4669ZM99.1169 14.4C99.9169 13.1733 100.917 12.2133 102.117 11.52C103.317 10.8 104.65 10.44 106.117 10.44V17.68H104.237C102.53 17.68 101.25 18.0533 100.397 18.8C99.5435 19.52 99.1169 20.8 99.1169 22.64V33H92.2769V10.68H99.1169V14.4ZM130.426 21.48C130.426 22.12 130.386 22.7867 130.306 23.48H114.826C114.933 24.8667 115.373 25.9333 116.146 26.68C116.946 27.4 117.92 27.76 119.066 27.76C120.773 27.76 121.96 27.04 122.626 25.6H129.906C129.533 27.0667 128.853 28.3867 127.866 29.56C126.906 30.7333 125.693 31.6533 124.226 32.32C122.76 32.9867 121.12 33.32 119.306 33.32C117.12 33.32 115.173 32.8533 113.466 31.92C111.76 30.9867 110.426 29.6533 109.466 27.92C108.506 26.1867 108.026 24.16 108.026 21.84C108.026 19.52 108.493 17.4933 109.426 15.76C110.386 14.0267 111.72 12.6933 113.426 11.76C115.133 10.8267 117.093 10.36 119.306 10.36C121.466 10.36 123.386 10.8133 125.066 11.72C126.746 12.6267 128.053 13.92 128.986 15.6C129.946 17.28 130.426 19.24 130.426 21.48ZM123.426 19.68C123.426 18.5067 123.026 17.5733 122.226 16.88C121.426 16.1867 120.426 15.84 119.226 15.84C118.08 15.84 117.106 16.1733 116.306 16.84C115.533 17.5067 115.053 18.4533 114.866 19.68H123.426Z"/><path fill="#FF124B" d="M137.235 33.32C136.035 33.32 135.048 32.9733 134.275 32.28C133.528 31.56 133.155 30.68 133.155 29.64C133.155 28.5733 133.528 27.68 134.275 26.96C135.048 26.24 136.035 25.88 137.235 25.88C138.408 25.88 139.368 26.24 140.115 26.96C140.888 27.68 141.275 28.5733 141.275 29.64C141.275 30.68 140.888 31.56 140.115 32.28C139.368 32.9733 138.408 33.32 137.235 33.32ZM148.764 8.36C147.564 8.36 146.577 8.01333 145.804 7.32C145.057 6.6 144.684 5.72 144.684 4.68C144.684 3.61333 145.057 2.73333 145.804 2.04C146.577 1.32 147.564 0.959998 148.764 0.959998C149.937 0.959998 150.897 1.32 151.644 2.04C152.417 2.73333 152.804 3.61333 152.804 4.68C152.804 5.72 152.417 6.6 151.644 7.32C150.897 8.01333 149.937 8.36 148.764 8.36ZM152.164 10.68V33H145.324V10.68H152.164ZM167.281 33.32C165.094 33.32 163.121 32.8533 161.361 31.92C159.627 30.9867 158.254 29.6533 157.241 27.92C156.254 26.1867 155.761 24.16 155.761 21.84C155.761 19.5467 156.267 17.5333 157.281 15.8C158.294 14.04 159.681 12.6933 161.441 11.76C163.201 10.8267 165.174 10.36 167.361 10.36C169.547 10.36 171.521 10.8267 173.281 11.76C175.041 12.6933 176.427 14.04 177.441 15.8C178.454 17.5333 178.961 19.5467 178.961 21.84C178.961 24.1333 178.441 26.16 177.401 27.92C176.387 29.6533 174.987 30.9867 173.201 31.92C171.441 32.8533 169.467 33.32 167.281 33.32ZM167.281 27.4C168.587 27.4 169.694 26.92 170.601 25.96C171.534 25 172.001 23.6267 172.001 21.84C172.001 20.0533 171.547 18.68 170.641 17.72C169.761 16.76 168.667 16.28 167.361 16.28C166.027 16.28 164.921 16.76 164.041 17.72C163.161 18.6533 162.721 20.0267 162.721 21.84C162.721 23.6267 163.147 25 164.001 25.96C164.881 26.92 165.974 27.4 167.281 27.4Z"/></svg>